<?xml version="1.0" encoding="UTF-8"?>
<svg viewBox="0 0 708.66 708.66" xmlns="http://www.w3.org/2000/svg">
 <g fill="#3f007f">
  <path transform="rotate(22.21 316.44 252.06)" d="m408.02 291.32s-14.952 7.6632-27.7-0.92264c-56.209-62.035-121.62-82.574-155.23-142.26-5.6276 48.1 98.425 100.01 98.425 100.01s-62.643-25.632-97.041-67.868c0.67253 33.415 95.474 70.846 95.474 70.846s-39.432-11.806-92.171-47.826c3.1846 22.277 92.246 51.539 92.246 51.539s-57.579-19.323-89.248-37.031c9.0626 26.478 88.222 41.978 88.222 41.978s-32.55-6.341-72.923-11.173c17.485 16.771 73.713 16.363 73.713 16.363s-39.702 3.374-63.655 0.56622c-1.6527 20.542 64.692 11.632 64.692 11.632s-37.666 5.1469-58.827 11.079c3.4426 18.147 63.302-0.62451 63.302-0.62451s-31.71 10.479-50.224 21.291c9.7427 3.4632 51.71-17.344 51.71-17.344s-37.347 18.796-43.722 29.768c8.0857 4.1135 46.021-24.762 46.021-24.762s-32.332 23.328-38.017 35.802c9.9306-2.5197 42.102-27.262 42.102-27.262s-31.204 22.589-33.695 34.203c3.6035 4.2975 39.207-26.814 39.207-26.814s-28.556 23.027-31.016 31.871c8.0101 0.40051 38.962-25.931 38.962-25.931s-20.31 13.291-31.968 32.639c10.636-2.4031 38.633-28.067 38.633-28.067s-24.264 18.88-31.5 32.948c14.977-0.7594 41.411-42.14 84.222-64.658z"/>
  <path transform="rotate(22.21 235.48 436.76)" d="m261.85 394.58zc-38.274-36.716 62.308-102.62 11.236-106.65-8.429-0.27145-17.02-1.7886-25.447-4.1751-48.771 52.487-65.817 138.41-64.49 306 13.031-149.48 32.249-168.52 52.022-180.95 9.4492-4.843 18.309-9.5751 26.678-14.206-0.007538-0.001709 0.007538-0.016663 0-0.021667v0.001678z"/>
  <path transform="rotate(22.21 556.76 394.58)" d="m506.05 351.06l-5.5919 9.6159 5.1558 6.6482c49.838 23.518 107.46 70.757 107.46 70.757s-39.005-38.629-107.02-87.021z"/>
  <path transform="rotate(22.21 208.01 204.38)" d="m45.773 110.23c12.313 47.94 200.5 81.857 200.5 81.857s-110.81-14.925-184.1-50.654c15.831 32.563 182.95 53.82 182.95 53.82s-67.856-5.1535-167.53-31.837c12.71 18.138 126.6 31.097 159.91 34.527-21.773-2.1534-97.397-9.7966-146.6-17.155 16.307 15.264 93.896 20.795 149.78 22.794-43.181-0.72026-97.031-1.3798-115.74-0.61285 32.858 15.359 126.03 5.8563 126.03 5.8563s-61.554 9.7325-100.84 10.863c6.4491 20.352 107.89 0.89017 107.89 0.89017s-57.564 11.136-88.55 20.36c10.767 13.723 65.114-2.593 86.627-9.735-15.696 5.5608-47.605 17.736-56.717 27.82 17.004 1.8094 73.006-25.109 73.006-25.109s-49.568 24.213-54.844 35.971c12.048 2.2308 45.905-19.611 57.717-27.542-10.504 7.2228-37.29 26.493-40.12 37.04 10.994-3.0526 36.346-20.35 48.328-28.809-11.171 8.2744-32.783 25.492-31.911 34.23 7.5686 0.52374 31.491-17.526 43.454-26.969-10.25 8.431-28.218 24.12-28.218 30.591 7.2414-0.50796 23.218-11.621 35.836-21.271-8.1796 7.4317-17.092 16.966-21.752 26.693 9.2828-2.3873 24.488-13.544 35.502-22.379-9.1587 8.7458-20.231 20.285-20.06 24.832 0 0 15.13-4.9629 33.86-23.011-7.1184 7.814-16.186 18.815-17.316 25.247 0 0 47.952-25.084 57.383-60.23-27.639-2.7787-37.171 9.2912-40.401 16.76-54.447-17.15-99.512-69.094-41.12-55.6-82.331-27.625-167.99-49.688-242.95-89.237z"/>
  <path transform="rotate(22.21 368.61 336.54)" d="m436.99 235.59c-24.67 0.10376-53.428 12.104-83.523 48.833-8.973 4.5423-17.373 9.3711-25.216 14.583-25.211-10.748-51.214-20.182-77.572-29.027-59.871-13.887-11.379 40.8 44.712 56.689 8.4268 2.3865 17.018 3.9037 25.447 4.1743 51.072 4.0294-49.509 69.934-11.236 106.65 179.92-99.573 119.58-150.19 203.98-145.61l-5.1558-6.6291 5.5919-9.6159s-31.531-40.24-77.033-40.048zm14.108 18.006c1.1778-0.027496 2.3966 0.079895 3.5916 0.33641 6.3692 1.3664 10.083 6.4633 8.3113 11.377-1.7726 4.9137-8.3544 7.7973-14.725 6.4309-6.3692-1.3673-10.109-6.4642-8.3361-11.378 1.439-3.9919 6.0572-6.6474 11.158-6.7664z"/>
  <path transform="rotate(22.21 471.48 298.45)" d="m470.98 285.79c-6.9954 0.16318-13.34 3.7853-15.314 9.2603-2.43 6.7381 2.6794 13.718 11.415 15.591 8.7355 1.8744 17.784-2.0667 20.214-8.8048 2.43-6.7382-2.6804-13.717-11.415-15.591-1.6387-0.35175-3.285-0.49304-4.8999-0.45538zm2.1807 3.8586c1.1767-0.027496 2.3706 0.079895 3.5656 0.3364 6.3692 1.3664 10.109 6.4633 8.3362 11.377-1.7715 4.9137-8.3793 7.7773-14.75 6.4109-6.3692-1.3664-10.109-6.4442-8.3361-11.358 1.439-3.9919 6.0821-6.6474 11.184-6.7664z"/>
  <path transform="rotate(22.21 545.85 113.41)" d="m545.85 113.41c-3.2397-1.5068-6.4794-3.0137-9.7191-4.5206"/>
  <path transform="rotate(22.21 442.04 283.85)" d="m462.36 259.44c-24.67 0.10373-53.428 12.104-83.523 48.833 54.814-55.187 102.07-46.025 126.41-37.08-11.942-6.6503-26.504-11.822-42.89-11.753z"/>
  <path transform="rotate(22.21 397.82 371.96)" d="m345.92 422.49c73.245-48.512 87.512-82.49 103.81-100.95-77.516-3.0976-64.404 55.411-103.81 100.95z"/>
 </g>
</svg>
